# xmcd
#
# Track frame offsets:
#	182
#	18992
#	37525
#	54595
#
# Disc length: 940 seconds
#
# Revision: 2
# Processed by: cddbd v1.5.1PL0 Copyright (c) Steve Scherf et al.
# Submitted via: dBpowerAMP V4.0
#
DISCID=2103aa04
DTITLE=Leo Sayer - When I Need You
DYEAR=1993
DGENRE=Pop
TTITLE0=When I Need You
TTITLE1='Til You Come Back To Me
TTITLE2=Don't Wait Until Tomorrow
TTITLE3=I Can't Stop Loving You (Though I Try)
EXTD=
EXTT0=
EXTT1=
EXTT2=
EXTT3=
PLAYORDER=
